<svg width="69" height="69" viewBox="0 0 69 69" xmlns="http://www.w3.org/2000/svg">
  <!-- OUTER CIRCLE -->
  <circle 
    cx="34.5" 
    cy="34.5" 
    r="34" 
    fill="#3e4c6f" 
    stroke="#ffffff" 
  />

  <!-- INSTAGRAM ICON (white) -->
  <g clip-path="url(#clip)">
    <path 
      d="M42.85 27.89C41.89 27.89 41.11 27.11 41.11 26.15C41.11 25.18 41.89 24.40 42.85 24.40C43.82 24.40 44.60 25.18 44.60 26.15C44.60 27.11 43.82 27.89 42.85 27.89ZM34.50 21.39C32.22 21.39 29.95 21.42 27.67 21.47C24.36 21.55 21.55 24.36 21.47 27.67C21.37 32.22 21.37 36.78 21.47 41.33C21.55 44.64 24.36 47.45 27.67 47.53C29.95 47.58 32.22 47.60 34.50 47.60C36.78 47.60 39.05 47.58 41.33 47.53C44.64 47.45 47.45 44.64 47.53 41.33C47.63 36.78 47.63 32.22 47.53 27.67C47.45 24.36 44.64 21.55 41.33 21.47C39.05 21.42 36.78 21.39 34.50 21.39ZM34.50 19C36.78 19 39.10 19.02 41.38 19.07C43.61 19.13 45.72 20.05 47.34 21.66C48.95 23.28 49.87 25.39 49.93 27.62C50.02 32.18 50.02 36.82 49.93 41.38C49.87 43.61 48.95 45.72 47.34 47.34C45.72 48.95 43.61 49.87 41.38 49.93C39.10 49.97 36.78 50 34.50 50C32.22 50 29.90 49.97 27.62 49.93C25.39 49.87 23.28 48.95 21.66 47.34C20.05 45.72 19.13 43.61 19.07 41.38C18.98 36.82 18.98 32.18 19.07 27.62C19.13 25.39 20.05 23.28 21.66 21.66C23.28 20.05 25.39 19.13 27.62 19.07C29.90 19.02 32.22 19 34.50 19ZM34.50 28.94C31.45 28.94 28.97 31.43 28.97 34.50C28.97 37.57 31.45 40.06 34.50 40.06C37.55 40.06 40.03 37.57 40.03 34.50C40.03 31.43 37.55 28.94 34.50 28.94ZM34.50 26.54C38.87 26.54 42.43 30.11 42.43 34.50C42.43 38.89 38.87 42.46 34.50 42.46C30.13 42.46 26.57 38.89 26.57 34.50C26.57 30.11 30.13 26.54 34.50 26.54Z" 
      fill="#FFFFFF"
    />
  </g>

  <defs>
    <radialGradient id="highlight" cx="0" cy="0" r="1" gradientUnits="userSpaceOnUse"
      gradientTransform="translate(34.5 34.5) rotate(90) scale(34.5)">
      <stop offset="0.45" stop-color="#FFFFFF" stop-opacity="0" />
      <stop offset="1" stop-color="#FFFFFF" stop-opacity="0.20" />
    </radialGradient>

    <clipPath id="clip">
      <rect width="31" height="31" x="19" y="19" />
    </clipPath>
  </defs>
</svg>
